# xmcd
#
# Track frame offsets:
# 150
# 14735
# 24795
# 44972
# 57275
# 68057
# 80475
# 97972
# 109362
# 119362
#
# Disc length: 1827 seconds
#
#
# Revision: 4
# Processed by: cddbd v1.4PL0 Copyright (c) Steve Scherf et al.
# Submitted via: FreeRIP 2.00 
#
DISCID=8607210a
DTITLE=Glen Campbell - The World Of Glen Campbell (Live)
DYEAR=1900
DGENRE=Country
TTITLE0=Rhinestone Cowboy
TTITLE1=Gentle On My Mind
TTITLE2=Melody: Whichita Lineman, Galveston, Country Boy (You Got Your Feet In L.A.)
TTITLE3=By The Time I Get To Phoenix
TTITLE4=Dreams Of The Everyday Housewife
TTITLE5=Heartache Number Three
TTITLE6=Please Come To Boston
TTITLE7=It's Only Make Believe
TTITLE8=Try A Little Kindness
TTITLE9=Southern Lights
EXTD=
EXTT0=
EXTT1=
EXTT2=
EXTT3=
EXTT4=
EXTT5=
EXTT6=
EXTT7=
EXTT8=
EXTT9=
PLAYORDER=
